Coordinates
nRows=17
nColumns=24

# SIMM Motion File Header:
name Coordinates
datacolumns 24
datarows 17
otherdata 1
range 1.56600000000000010000 1.58200000000000010000
endheader
time	pelvis_tx	pelvis_ty	pelvis_tz	pelvis_tilt	pelvis_list	pelvis_rotation	hip_flexion_r	hip_adduction_r	hip_rotation_r	knee_angle_r	ankle_angle_r	subtalar_angle_r	mtp_angle_r	hip_flexion_l	hip_adduction_l	hip_rotation_l	knee_angle_l	ankle_angle_l	subtalar_angle_l	mtp_angle_l	lumbar_extension	lumbar_bending	lumbar_rotation
      1.56600000000000010000	      2.02983225829614300000	      0.94990617096170193000	     -0.26843237367767042000	     -0.62359173593299366000	      1.92633175623626180000	      3.79089800142913940000	      6.00604169354198890000	      0.70928741606160739000	      8.85061021776078500000	    -11.91640252093465000000	      6.67934281364264580000	     -0.00000000000000502173	     -0.00000000000019159909	     14.60279446428818600000	      2.63958591269487060000	      3.76132999904364370000	    -45.86919337048612300000	      2.04472652720360590000	      0.00000000000020300140	      0.00000000000008433725	     -1.95315212928655680000	      1.71081159233638360000	     -0.26499891093929479000
      1.56699999999999990000	      2.03012568391924250000	      0.94990486572012212000	     -0.26843134309807809000	     -0.62191140465520023000	      1.94101126581868980000	      3.78802154118553380000	      5.98004091848148710000	      0.70097600384778846000	      8.86927208948516820000	    -11.91751200418547000000	      6.69582983941949110000	     -0.00000000000000507353	     -0.00000000000019227121	     14.66551501407361100000	      2.65905693889171340000	      3.75268964324524120000	    -45.76531821381642100000	      2.16637078866250570000	      0.00000000000020337666	      0.00000000000008398186	     -1.96810291306022610000	      1.69747774178219450000	     -0.26820557597469524000
      1.56800000000000010000	      2.03041845721048730000	      0.94990273493364397000	     -0.26843095808856082000	     -0.62047426100479885000	      1.95554848768422800000	      3.78527389442745040000	      5.95431869865259690000	      0.69271226581807277000	      8.88838319877712910000	    -11.91861615043546700000	      6.71287246154277370000	     -0.00000000000000512319	     -0.00000000000019296725	     14.72822714866347300000	      2.67844695966490050000	      3.74416599603453150000	    -45.66019100700388100000	      2.28527830750660850000	      0.00000000000020375497	      0.00000000000008362752	     -1.98276398992280000000	      1.68428195692878680000	     -0.27147417577720928000
      1.56900000000000000000	      2.03071123050173210000	      0.94990060414716582000	     -0.26843057307904350000	     -0.61903711735439781000	      1.97008570954976280000	      3.78252624766936750000	      5.92859647882371290000	      0.68444852778835885000	      8.90749430806908650000	    -11.91972029668546000000	      6.72991508366605280000	     -0.00000000000000517285	     -0.00000000000019366330	     14.79093928325331900000	      2.69783698043808330000	      3.73564234882382400000	    -45.55506380019136300000	      2.40418582635068520000	      0.00000000000020413328	      0.00000000000008327318	     -1.99742506678537080000	      1.67108617207538220000	     -0.27474277557972265000
      1.57000000000000010000	      2.03100337925577490000	      0.94989769391346390000	     -0.26843082827680703000	     -0.61780515456627150000	      1.98445539258029500000	      3.77989820605116030000	      5.90310015775558310000	      0.67625976310494118000	      8.92705330904479230000	    -11.92079475969496500000	      6.74739493220611930000	     -0.00000000000000520189	     -0.00000000000019436029	     14.85354179492089000000	      2.71711397064036970000	      3.72725744386191500000	    -45.44855191688552100000	      2.52048818683140570000	      0.00000000000020451736	      0.00000000000008291711	     -2.01183678116937430000	      1.65805513872231970000	     -0.27804196709473961000
      1.57100000000000000000	      2.03129531983074950000	      0.94989452386402051000	     -0.26843129687699752000	     -0.61664158539890446000	      1.99876922933248840000	      3.77731003281291280000	      5.87767913627437990000	      0.66809598953695815000	      8.94676160724841200000	    -11.92185932829097100000	      6.76502052288511190000	     -0.00000000000000522406	     -0.00000000000019505760	     14.91610776561435100000	      2.73635328398568410000	      3.71891878631627560000	    -45.34157847474859400000	      2.63592216119096360000	      0.00000000000020490335	      0.00000000000008256047	     -2.02616537472718330000	      1.64507902253604250000	     -0.28135135584725696000
      1.57200000000000010000	      2.03158707995427830000	      0.94989112924796981000	     -0.26843195677901682000	     -0.61552765055295888000	      2.01302575277074340000	      3.77475250057217290000	      5.85230981887291970000	      0.65996207288560094000	      8.96660968603200640000	    -11.92290928706169400000	      6.78275452129491630000	     -0.00000000000000524172	     -0.00000000000019576156	     14.97860179429859300000	      2.75554922343146250000	      3.71062677739455670000	    -45.23413014311950800000	      2.75064766764777380000	      0.00000000000020528938	      0.00000000000008220125	     -2.04043163197644350000	      1.63215928659936660000	     -0.28465672998512176000
      1.57300000000000000000	      2.03187829872346710000	      0.94988706093209685000	     -0.26843319058652260000	     -0.61456261867128092000	      2.02711033626716830000	      3.77228689132395890000	      5.82709561371071240000	      0.65191772698412975000	      8.98687710655551970000	    -11.92391541635656600000	      6.80081374289714710000	     -0.00000000000000524585	     -0.00000000000019648547	     15.04087999695512500000	      2.77461504117861190000	      3.70247471434460930000	    -45.12525714301403200000	      2.86324777039620800000	      0.00000000000020567550	      0.00000000000008183430	     -2.05451088030003960000	      1.61940869141150870000	     -0.28795006027902564000
      1.57400000000000010000	      2.03216951749265640000	      0.94988299261622389000	     -0.26843442439402831000	     -0.61359758678960274000	      2.04119491976359680000	      3.76982128207574440000	      5.80188140854849890000	      0.64387338108265668000	      9.00714452707903850000	    -11.92492154565143800000	      6.81887296449938240000	     -0.00000000000000524997	     -0.00000000000019720938	     15.10315819961167000000	      2.79368085892576580000	      3.69432265129466010000	    -45.01638414290852800000	      2.97584787314466670000	      0.00000000000020606161	      0.00000000000008146734	     -2.06859012862363880000	      1.60665809622364760000	     -0.29124339057293025000
      1.57500000000000000000	      2.03246029078653260000	      0.94987838735454788000	     -0.26843614300683921000	     -0.61275409305238138000	      2.05513978194392120000	      3.76744926784226620000	      5.77678995314140220000	      0.63589917364767978000	      9.02771819905661840000	    -11.92589310939020600000	      6.83718488859222000000	     -0.00000000000000525145	     -0.00000000000019794351	     15.16525987409167300000	      2.81264177615419490000	      3.68632067538950240000	    -44.90631290410746600000	      3.08588503075589180000	      0.00000000000020645462	      0.00000000000008108621	     -2.08251796671669800000	      1.59404022963066480000	     -0.29453255448699733000
      1.57600000000000010000	      2.03275060184272460000	      0.94987324451207700000	     -0.26843837799803660000	     -0.61203509788196531000	      2.06893716846351830000	      3.76519967942223580000	      5.75182195560404260000	      0.62800032513610027000	      9.04855523630650720000	    -11.92683549387309200000	      6.85578504478346760000	     -0.00000000000000526944	     -0.00000000000019866483	     15.22719995854177600000	      2.83149361379080890000	      3.67851292982821620000	    -44.79503867933868100000	      3.19251211864201380000	      0.00000000000020684182	      0.00000000000008071875	     -2.09629238204389080000	      1.58155939808596550000	     -0.29783383466927377000
      1.57700000000000000000	      2.03304078003279850000	      0.94986794804485553000	     -0.26844076202939593000	     -0.61135181470312949000	      2.08269204982554030000	      3.76298644270122470000	      5.72688926546350350000	      0.62012325633867960000	      9.06946547857791960000	    -11.92776979791621500000	      6.87446924488891130000	     -0.00000000000000529307	     -0.00000000000019938140	     15.28909458575220400000	      2.85031408682627510000	      3.67076278070799410000	    -44.68342051823285700000	      3.29812456162627040000	      0.00000000000020722675	      0.00000000000008035653	     -2.11002286646010260000	      1.56911792448141800000	     -0.30113935200665881000
      1.57800000000000010000	      2.03333080113230260000	      0.94986246339011438000	     -0.26844332861396403000	     -0.61069338852888211000	      2.09637853852808090000	      3.76080953303235610000	      5.70197760706102400000	      0.61229125636767878000	      9.09047652079664380000	    -11.92869342715497400000	      6.89330793961308070000	     -0.00000000000000531512	     -0.00000000000020010256	     15.35087767190385900000	      2.86907788912420440000	      3.66308850841633630000	    -44.57132180288837000000	      3.40293545526130270000	      0.00000000000020761195	      0.00000000000007999343	     -2.12371928217440240000	      1.55674204919762720000	     -0.30443165237747277000
      1.57900000000000000000	      2.03362035096009790000	      0.94985641417281463000	     -0.26844644285815822000	     -0.61010953336840146000	      2.10985984925216160000	      3.75874160451991560000	      5.67712904387274800000	      0.60459446287594587000	      9.11178996285728360000	    -11.92958503198064500000	      6.91261011819341140000	     -0.00000000000000533245	     -0.00000000000020083748	     15.41232613487913200000	      2.88767167920950560000	      3.65564186661037870000	    -44.45778142482797100000	      3.50534170084854990000	      0.00000000000020799797	      0.00000000000007962773	     -2.13731349178295420000	      1.54456296887612000000	     -0.30768430184857010000
      1.58000000000000010000	      2.03390990078789270000	      0.94985036495551478000	     -0.26844955710235241000	     -0.60952567820792058000	      2.12334115997624600000	      3.75667367600747460000	      5.65228048068446660000	      0.59689766938421129000	      9.13310340491792690000	    -11.93047663680631800000	      6.93191229677374570000	     -0.00000000000000534977	     -0.00000000000020157240	     15.47377459785442100000	      2.90626546929481090000	      3.64819522480441940000	    -44.34424104676755000000	      3.60774794643581930000	      0.00000000000020838399	      0.00000000000007926202	     -2.15090770139150860000	      1.53238388855460990000	     -0.31093695131966814000
      1.58100000000000000000	      2.03419902423689970000	      0.94984379701531219000	     -0.26845316617006743000	     -0.60897066910191411000	      2.13661188076350370000	      3.75469625386030880000	      5.62744452556808210000	      0.58935235216929915000	      9.15468955092302750000	    -11.93134969920530300000	      6.95191350484678330000	     -0.00000000000000537517	     -0.00000000000020229837	     15.53480841698196700000	      2.92467909817619100000	      3.64099565755759920000	    -44.22927613261622100000	      3.70851318268885240000	      0.00000000000020877925	      0.00000000000007888668	     -2.16445363179924000000	      1.52040211071553080000	     -0.31411216236583844000
      1.58200000000000010000	      2.03448800555964390000	      0.94983705616747549000	     -0.26845694017895599000	     -0.60842527534739921000	      2.14981240490515550000	      3.75274900050156820000	      5.60261277314232140000	      0.58185752704665961000	      9.17636659824295720000	    -11.93221658079538900000	      6.97214772275073090000	     -0.00000000000000540328	     -0.00000000000020302135	     15.59570402149361500000	      2.94303267332293440000	      3.63387844849715780000	    -44.11383637310120800000	      3.80873141583049610000	      0.00000000000020917760	      0.00000000000007850813	     -2.17798346914003370000	      1.50848610037059250000	     -0.31726156060370009000
